<svg width="16" height="16" viewBox="0 0 16 16" fill="none" xmlns="http://www.w3.org/2000/svg">
<g clip-path="url(#clip0_15_115)">
<path d="M11.473 9.00001C11.3605 7.98614 10.9069 7.04059 10.1865 6.31837C9.46606 5.59615 8.52166 5.14012 7.50809 5.02505C6.49452 4.90997 5.47192 5.14269 4.60796 5.68503C3.74399 6.22738 3.08993 7.04717 2.753 8.01001C1.98094 8.0732 1.26325 8.43259 0.750166 9.01294C0.237078 9.5933 -0.0316318 10.3496 0.00028375 11.1236C0.0321993 11.8976 0.362266 12.6292 0.921393 13.1654C1.48052 13.7015 2.22536 14.0006 3 14H11.5C12.163 13.9964 12.7975 13.7296 13.2638 13.2582C13.7301 12.7869 13.9901 12.1495 13.9865 11.4865C13.9829 10.8235 13.7161 10.189 13.2447 9.72269C12.7734 9.25638 12.136 8.99643 11.473 9.00001Z" fill="#67ADFF"/>
<path d="M14.544 9.772C14.3076 9.35522 13.9882 8.99141 13.6054 8.70311C13.2227 8.41482 12.7848 8.20818 12.319 8.096C11.9643 6.75139 11.1135 5.59104 9.9377 4.84851C8.76193 4.10598 7.34854 3.83639 5.982 4.094C6.36549 3.38782 6.95269 2.81343 7.66717 2.44562C8.38165 2.07781 9.19031 1.93362 9.98788 2.0318C10.7855 2.12999 11.535 2.46601 12.1389 2.99613C12.7429 3.52624 13.1732 4.22589 13.374 5.004C13.9545 4.97437 14.5273 5.14796 14.9937 5.49492C15.4601 5.84188 15.791 6.34053 15.9295 6.90508C16.068 7.46964 16.0054 8.06481 15.7526 8.58823C15.4997 9.11165 15.0723 9.5296 14.544 9.772Z" fill="#67ADFF"/>
</g>
<defs>
<clipPath id="clip0_15_115">
<rect width="16" height="16" fill="white"/>
</clipPath>
</defs>
</svg>
