<?xml version="1.0" encoding="utf-8"?>
<!-- Generator: Adobe Illustrator 27.0.1, SVG Export Plug-In . SVG Version: 6.00 Build 0)  -->
<svg version="1.1" id="Слой_1" xmlns="http://www.w3.org/2000/svg" xmlns:xlink="http://www.w3.org/1999/xlink" x="0px" y="0px"
	 viewBox="0 0 50 50" style="enable-background:new 0 0 50 50;" xml:space="preserve">
<style type="text/css">
	.st0{fill:#8B7F6F;}
</style>
<path class="st0" d="M6.1,38.8c0-1.5-1.2-2.1-1.2-2.1s4.8,0.4,4.9-5.2c0,0,0.5-2,11.2-1.2c0.9,0.1,3.1,4.5,3.2,5.9
	c0.2,1.4,0.3,2.6,0.3,2.6h8.3c-0.1-1.7-1.6-2.3-2.4-2.9c0.7-5.4,1.9-10.5,4.7-10.6c2.2-0.1,4.2-0.7,5.1-1.3c1-0.6,6.9-0.7,7.5-1.2
	c0.5-0.5,2.1-2,1.8-2.6c-0.3-0.6-3.3-1.3-3.3-1.3s-0.4-0.7-0.6-1.2c-0.3-0.4-3-1.3-3-1.3s-0.6-1.6-1-2.2c-0.5-0.6-1.9,1.1-1.9,1.1
	s-5.2,0-6.8-0.4c-2.3-0.6-2.8-1.8-6-1.8c-2.5,0-2.9,1.5-5.1,1.5c-2.2,0.1-6.4-1.3-12.3-0.5c-5.8,0.8-8.1,6.3-8.6,8.2
	c-0.5,1.9,1.3,6.2,1.5,8.1c0.2,1.9-1.4,3.3-1.8,4.3c-0.3,1,0.9,4.1,0.9,4.1S6.1,39.2,6.1,38.8z"/>
</svg>
