<svg width="166" height="114" viewBox="0 0 166 114" fill="none" xmlns="http://www.w3.org/2000/svg">
<rect x="0.5" y="0.5" width="165" height="113" stroke="#8B7F6F"/>
<path d="M34.7208 70.096C34.0808 70.096 33.4848 69.988 32.9328 69.772C32.3888 69.556 31.9168 69.256 31.5168 68.872C31.1168 68.48 30.8048 68.024 30.5808 67.504C30.3568 66.984 30.2448 66.416 30.2448 65.8C30.2448 65.184 30.3568 64.616 30.5808 64.096C30.8048 63.576 31.1168 63.124 31.5168 62.74C31.9168 62.348 32.3888 62.044 32.9328 61.828C33.4768 61.612 34.0728 61.504 34.7208 61.504C35.3608 61.504 35.9488 61.612 36.4848 61.828C37.0288 62.036 37.5008 62.336 37.9008 62.728C38.3088 63.112 38.6208 63.564 38.8368 64.084C39.0608 64.604 39.1728 65.176 39.1728 65.8C39.1728 66.424 39.0608 66.996 38.8368 67.516C38.6208 68.036 38.3088 68.492 37.9008 68.884C37.5008 69.268 37.0288 69.568 36.4848 69.784C35.9488 69.992 35.3608 70.096 34.7208 70.096ZM34.7208 69.028C35.1848 69.028 35.6128 68.948 36.0048 68.788C36.4048 68.628 36.7488 68.404 37.0368 68.116C37.3328 67.82 37.5608 67.476 37.7208 67.084C37.8888 66.692 37.9728 66.264 37.9728 65.8C37.9728 65.336 37.8888 64.908 37.7208 64.516C37.5608 64.124 37.3328 63.784 37.0368 63.496C36.7488 63.2 36.4048 62.972 36.0048 62.812C35.6128 62.652 35.1848 62.572 34.7208 62.572C34.2488 62.572 33.8128 62.652 33.4128 62.812C33.0208 62.972 32.6768 63.2 32.3808 63.496C32.0848 63.784 31.8528 64.124 31.6848 64.516C31.5248 64.908 31.4448 65.336 31.4448 65.8C31.4448 66.264 31.5248 66.692 31.6848 67.084C31.8528 67.476 32.0848 67.82 32.3808 68.116C32.6768 68.404 33.0208 68.628 33.4128 68.788C33.8128 68.948 34.2488 69.028 34.7208 69.028ZM42.0401 70V64.348L42.3281 64.648H39.7121V63.64H45.5201V64.648H42.9161L43.1921 64.348V70H42.0401ZM51.306 70L48.846 66.904L49.794 66.328L52.662 70H51.306ZM46.698 70V63.64H47.85V70H46.698ZM47.502 67.312V66.328H49.602V67.312H47.502ZM49.89 66.952L48.822 66.808L51.258 63.64H52.494L49.89 66.952ZM57.2419 70.072C56.7139 70.072 56.2299 69.952 55.7899 69.712C55.3579 69.464 55.0099 69.1 54.7459 68.62C54.4899 68.14 54.3619 67.54 54.3619 66.82C54.3619 66.1 54.4859 65.5 54.7339 65.02C54.9899 64.54 55.3339 64.18 55.7659 63.94C56.2059 63.7 56.6979 63.58 57.2419 63.58C57.8659 63.58 58.4179 63.716 58.8979 63.988C59.3779 64.26 59.7579 64.64 60.0379 65.128C60.3179 65.608 60.4579 66.172 60.4579 66.82C60.4579 67.468 60.3179 68.036 60.0379 68.524C59.7579 69.012 59.3779 69.392 58.8979 69.664C58.4179 69.936 57.8659 70.072 57.2419 70.072ZM53.8699 72.328V63.64H54.9739V65.356L54.9019 66.832L55.0219 68.308V72.328H53.8699ZM57.1459 69.064C57.5539 69.064 57.9179 68.972 58.2379 68.788C58.5659 68.604 58.8219 68.344 59.0059 68.008C59.1979 67.664 59.2939 67.268 59.2939 66.82C59.2939 66.364 59.1979 65.972 59.0059 65.644C58.8219 65.308 58.5659 65.048 58.2379 64.864C57.9179 64.68 57.5539 64.588 57.1459 64.588C56.7459 64.588 56.3819 64.68 56.0539 64.864C55.7339 65.048 55.4779 65.308 55.2859 65.644C55.1019 65.972 55.0099 66.364 55.0099 66.82C55.0099 67.268 55.1019 67.664 55.2859 68.008C55.4779 68.344 55.7339 68.604 56.0539 68.788C56.3819 68.972 56.7459 69.064 57.1459 69.064ZM68.4196 70V63.64H69.5716V70H68.4196ZM64.9996 65.8C65.8076 65.808 66.4196 65.992 66.8356 66.352C67.2596 66.712 67.4716 67.22 67.4716 67.876C67.4716 68.564 67.2396 69.096 66.7756 69.472C66.3196 69.84 65.6636 70.02 64.8076 70.012L62.1316 70V63.64H63.2836V65.788L64.9996 65.8ZM64.7236 69.136C65.2356 69.144 65.6276 69.04 65.8996 68.824C66.1716 68.608 66.3076 68.288 66.3076 67.864C66.3076 67.448 66.1716 67.144 65.8996 66.952C65.6356 66.76 65.2436 66.66 64.7236 66.652L63.2836 66.628V69.124L64.7236 69.136ZM73.0713 70V64.348L73.3593 64.648H70.7433V63.64H76.5513V64.648H73.9473L74.2233 64.348V70H73.0713ZM80.6693 65.8C81.4773 65.808 82.0933 65.992 82.5173 66.352C82.9413 66.712 83.1533 67.22 83.1533 67.876C83.1533 68.564 82.9213 69.096 82.4573 69.472C81.9933 69.84 81.3373 70.02 80.4893 70.012L77.7293 70V63.64H78.8813V65.788L80.6693 65.8ZM80.3933 69.136C80.9133 69.144 81.3053 69.04 81.5693 68.824C81.8413 68.608 81.9773 68.288 81.9773 67.864C81.9773 67.448 81.8453 67.144 81.5813 66.952C81.3173 66.76 80.9213 66.66 80.3933 66.652L78.8813 66.628V69.124L80.3933 69.136ZM87.8543 70V63.64H93.7463V70H92.5943V64.36L92.8703 64.648H88.7303L89.0063 64.36V70H87.8543ZM98.6994 70.072C98.0594 70.072 97.4914 69.932 96.9954 69.652C96.4994 69.372 96.1074 68.988 95.8194 68.5C95.5314 68.004 95.3874 67.444 95.3874 66.82C95.3874 66.188 95.5314 65.628 95.8194 65.14C96.1074 64.652 96.4994 64.272 96.9954 64C97.4914 63.72 98.0594 63.58 98.6994 63.58C99.3314 63.58 99.8954 63.72 100.391 64C100.895 64.272 101.287 64.652 101.567 65.14C101.855 65.62 101.999 66.18 101.999 66.82C101.999 67.452 101.855 68.012 101.567 68.5C101.287 68.988 100.895 69.372 100.391 69.652C99.8954 69.932 99.3314 70.072 98.6994 70.072ZM98.6994 69.064C99.1074 69.064 99.4714 68.972 99.7914 68.788C100.119 68.604 100.375 68.344 100.559 68.008C100.743 67.664 100.835 67.268 100.835 66.82C100.835 66.364 100.743 65.972 100.559 65.644C100.375 65.308 100.119 65.048 99.7914 64.864C99.4714 64.68 99.1074 64.588 98.6994 64.588C98.2914 64.588 97.9274 64.68 97.6074 64.864C97.2874 65.048 97.0314 65.308 96.8394 65.644C96.6474 65.972 96.5514 66.364 96.5514 66.82C96.5514 67.268 96.6474 67.664 96.8394 68.008C97.0314 68.344 97.2874 68.604 97.6074 68.788C97.9274 68.972 98.2914 69.064 98.6994 69.064ZM102.56 69.988L102.632 69.016C102.688 69.024 102.74 69.032 102.788 69.04C102.836 69.048 102.88 69.052 102.92 69.052C103.176 69.052 103.376 68.964 103.52 68.788C103.672 68.612 103.784 68.38 103.856 68.092C103.928 67.796 103.98 67.464 104.012 67.096C104.044 66.728 104.068 66.36 104.084 65.992L104.192 63.64H109.076V70H107.924V64.312L108.2 64.648H104.936L105.2 64.3L105.116 66.064C105.092 66.624 105.048 67.148 104.984 67.636C104.92 68.124 104.82 68.552 104.684 68.92C104.556 69.288 104.376 69.576 104.144 69.784C103.92 69.992 103.628 70.096 103.268 70.096C103.164 70.096 103.052 70.084 102.932 70.06C102.82 70.044 102.696 70.02 102.56 69.988ZM111.304 70V63.64H112.456V66.34H116.08V63.64H117.232V70H116.08V67.336H112.456V70H111.304ZM125.759 70V63.64H126.911V70H125.759ZM122.339 65.8C123.147 65.808 123.759 65.992 124.175 66.352C124.599 66.712 124.811 67.22 124.811 67.876C124.811 68.564 124.579 69.096 124.115 69.472C123.659 69.84 123.003 70.02 122.147 70.012L119.471 70V63.64H120.623V65.788L122.339 65.8ZM122.063 69.136C122.575 69.144 122.967 69.04 123.239 68.824C123.511 68.608 123.647 68.288 123.647 67.864C123.647 67.448 123.511 67.144 123.239 66.952C122.975 66.76 122.583 66.66 122.063 66.652L120.623 66.628V69.124L122.063 69.136ZM129.151 70V63.64H130.303V68.272L134.203 63.64H135.247V70H134.095V65.368L130.207 70H129.151ZM132.127 62.812C131.543 62.812 131.083 62.672 130.747 62.392C130.419 62.104 130.251 61.692 130.243 61.156H131.023C131.031 61.46 131.131 61.7 131.323 61.876C131.523 62.052 131.787 62.14 132.115 62.14C132.443 62.14 132.707 62.052 132.907 61.876C133.107 61.7 133.211 61.46 133.219 61.156H134.023C134.015 61.692 133.843 62.104 133.507 62.392C133.171 62.672 132.711 62.812 132.127 62.812ZM54.8685 87L52.4085 83.904L53.3565 83.328L56.2245 87H54.8685ZM50.2605 87V80.64H51.4125V87H50.2605ZM51.0645 84.312V83.328H53.1645V84.312H51.0645ZM53.4525 83.952L52.3845 83.808L54.8205 80.64H56.0565L53.4525 83.952ZM61.2152 87V85.656L61.1552 85.404V83.112C61.1552 82.624 61.0112 82.248 60.7232 81.984C60.4432 81.712 60.0192 81.576 59.4512 81.576C59.0752 81.576 58.7072 81.64 58.3472 81.768C57.9872 81.888 57.6832 82.052 57.4352 82.26L56.9552 81.396C57.2832 81.132 57.6752 80.932 58.1312 80.796C58.5952 80.652 59.0792 80.58 59.5832 80.58C60.4552 80.58 61.1272 80.792 61.5992 81.216C62.0712 81.64 62.3072 82.288 62.3072 83.16V87H61.2152ZM59.1272 87.072C58.6552 87.072 58.2392 86.992 57.8792 86.832C57.5272 86.672 57.2552 86.452 57.0632 86.172C56.8712 85.884 56.7752 85.56 56.7752 85.2C56.7752 84.856 56.8552 84.544 57.0152 84.264C57.1832 83.984 57.4512 83.76 57.8192 83.592C58.1952 83.424 58.6992 83.34 59.3312 83.34H61.3472V84.168H59.3792C58.8032 84.168 58.4152 84.264 58.2152 84.456C58.0152 84.648 57.9152 84.88 57.9152 85.152C57.9152 85.464 58.0392 85.716 58.2872 85.908C58.5352 86.092 58.8792 86.184 59.3192 86.184C59.7512 86.184 60.1272 86.088 60.4472 85.896C60.7752 85.704 61.0112 85.424 61.1552 85.056L61.3832 85.848C61.2312 86.224 60.9632 86.524 60.5792 86.748C60.1952 86.964 59.7112 87.072 59.1272 87.072ZM63.3256 86.988L63.3976 86.016C63.4536 86.024 63.5056 86.032 63.5536 86.04C63.6016 86.048 63.6456 86.052 63.6856 86.052C63.9416 86.052 64.1416 85.964 64.2856 85.788C64.4376 85.612 64.5496 85.38 64.6216 85.092C64.6936 84.796 64.7456 84.464 64.7776 84.096C64.8096 83.728 64.8336 83.36 64.8496 82.992L64.9576 80.64H69.8416V87H68.6896V81.312L68.9656 81.648H65.7016L65.9656 81.3L65.8816 83.064C65.8576 83.624 65.8136 84.148 65.7496 84.636C65.6856 85.124 65.5856 85.552 65.4496 85.92C65.3216 86.288 65.1416 86.576 64.9096 86.784C64.6856 86.992 64.3936 87.096 64.0336 87.096C63.9296 87.096 63.8176 87.084 63.6976 87.06C63.5856 87.044 63.4616 87.02 63.3256 86.988ZM74.9011 87.072C74.2211 87.072 73.6211 86.932 73.1011 86.652C72.5891 86.372 72.1891 85.988 71.9011 85.5C71.6211 85.012 71.4811 84.452 71.4811 83.82C71.4811 83.188 71.6171 82.628 71.8891 82.14C72.1691 81.652 72.5491 81.272 73.0291 81C73.5171 80.72 74.0651 80.58 74.6731 80.58C75.2891 80.58 75.8331 80.716 76.3051 80.988C76.7771 81.26 77.1451 81.644 77.4091 82.14C77.6811 82.628 77.8171 83.2 77.8171 83.856C77.8171 83.904 77.8131 83.96 77.8051 84.024C77.8051 84.088 77.8011 84.148 77.7931 84.204H72.3811V83.376H77.1931L76.7251 83.664C76.7331 83.256 76.6491 82.892 76.4731 82.572C76.2971 82.252 76.0531 82.004 75.7411 81.828C75.4371 81.644 75.0811 81.552 74.6731 81.552C74.2731 81.552 73.9171 81.644 73.6051 81.828C73.2931 82.004 73.0491 82.256 72.8731 82.584C72.6971 82.904 72.6091 83.272 72.6091 83.688V83.88C72.6091 84.304 72.7051 84.684 72.8971 85.02C73.0971 85.348 73.3731 85.604 73.7251 85.788C74.0771 85.972 74.4811 86.064 74.9371 86.064C75.3131 86.064 75.6531 86 75.9571 85.872C76.2691 85.744 76.5411 85.552 76.7731 85.296L77.4091 86.04C77.1211 86.376 76.7611 86.632 76.3291 86.808C75.9051 86.984 75.4291 87.072 74.9011 87.072ZM79.6043 87V80.64H80.7563V83.34H84.3803V80.64H85.5323V87H84.3803V84.336H80.7563V87H79.6043ZM92.1163 86.46V81.648H89.3563L89.2963 82.872C89.2803 83.272 89.2523 83.66 89.2123 84.036C89.1803 84.404 89.1243 84.744 89.0443 85.056C88.9723 85.368 88.8643 85.624 88.7203 85.824C88.5763 86.024 88.3843 86.148 88.1443 86.196L87.0043 85.992C87.2523 86 87.4523 85.92 87.6043 85.752C87.7563 85.576 87.8723 85.336 87.9523 85.032C88.0403 84.728 88.1043 84.384 88.1443 84C88.1843 83.608 88.2163 83.204 88.2402 82.788L88.3363 80.64H93.2682V86.46H92.1163ZM86.7523 88.476V85.992H94.2403V88.476H93.1603V87H87.8443V88.476H86.7523ZM99.641 87V85.656L99.581 85.404V83.112C99.581 82.624 99.437 82.248 99.149 81.984C98.869 81.712 98.445 81.576 97.877 81.576C97.501 81.576 97.133 81.64 96.773 81.768C96.413 81.888 96.109 82.052 95.861 82.26L95.381 81.396C95.709 81.132 96.101 80.932 96.557 80.796C97.021 80.652 97.505 80.58 98.009 80.58C98.881 80.58 99.553 80.792 100.025 81.216C100.497 81.64 100.733 82.288 100.733 83.16V87H99.641ZM97.553 87.072C97.081 87.072 96.665 86.992 96.305 86.832C95.953 86.672 95.681 86.452 95.489 86.172C95.297 85.884 95.201 85.56 95.201 85.2C95.201 84.856 95.281 84.544 95.441 84.264C95.609 83.984 95.877 83.76 96.245 83.592C96.621 83.424 97.125 83.34 97.757 83.34H99.773V84.168H97.805C97.229 84.168 96.841 84.264 96.641 84.456C96.441 84.648 96.341 84.88 96.341 85.152C96.341 85.464 96.465 85.716 96.713 85.908C96.961 86.092 97.305 86.184 97.745 86.184C98.177 86.184 98.553 86.088 98.873 85.896C99.201 85.704 99.437 85.424 99.581 85.056L99.809 85.848C99.657 86.224 99.389 86.524 99.005 86.748C98.621 86.964 98.137 87.072 97.553 87.072ZM106.179 87.072C105.651 87.072 105.167 86.952 104.727 86.712C104.295 86.464 103.947 86.1 103.683 85.62C103.427 85.14 103.299 84.54 103.299 83.82C103.299 83.1 103.423 82.5 103.671 82.02C103.927 81.54 104.271 81.18 104.703 80.94C105.143 80.7 105.635 80.58 106.179 80.58C106.803 80.58 107.355 80.716 107.835 80.988C108.315 81.26 108.695 81.64 108.975 82.128C109.255 82.608 109.395 83.172 109.395 83.82C109.395 84.468 109.255 85.036 108.975 85.524C108.695 86.012 108.315 86.392 107.835 86.664C107.355 86.936 106.803 87.072 106.179 87.072ZM102.807 89.328V80.64H103.911V82.356L103.839 83.832L103.959 85.308V89.328H102.807ZM106.083 86.064C106.491 86.064 106.855 85.972 107.175 85.788C107.503 85.604 107.759 85.344 107.943 85.008C108.135 84.664 108.231 84.268 108.231 83.82C108.231 83.364 108.135 82.972 107.943 82.644C107.759 82.308 107.503 82.048 107.175 81.864C106.855 81.68 106.491 81.588 106.083 81.588C105.683 81.588 105.319 81.68 104.991 81.864C104.671 82.048 104.415 82.308 104.223 82.644C104.039 82.972 103.947 83.364 103.947 83.82C103.947 84.268 104.039 84.664 104.223 85.008C104.415 85.344 104.671 85.604 104.991 85.788C105.319 85.972 105.683 86.064 106.083 86.064ZM114.009 82.8C114.817 82.808 115.433 82.992 115.857 83.352C116.281 83.712 116.493 84.22 116.493 84.876C116.493 85.564 116.261 86.096 115.797 86.472C115.333 86.84 114.677 87.02 113.829 87.012L111.069 87V80.64H112.221V82.788L114.009 82.8ZM113.733 86.136C114.253 86.144 114.645 86.04 114.909 85.824C115.181 85.608 115.317 85.288 115.317 84.864C115.317 84.448 115.185 84.144 114.921 83.952C114.657 83.76 114.261 83.66 113.733 83.652L112.221 83.628V86.124L113.733 86.136Z" fill="#8B7F6F"/>
<path d="M75 32V42C75 42.5304 75.2107 43.0391 75.5858 43.4142C75.9609 43.7893 76.4696 44 77 44H89C89.5304 44 90.0391 43.7893 90.4142 43.4142C90.7893 43.0391 91 42.5304 91 42V32M75 32V30C75 29.4696 75.2107 28.9609 75.5858 28.5858C75.9609 28.2107 76.4696 28 77 28H79M75 32H91M91 32V30C91 29.4696 90.7893 28.9609 90.4142 28.5858C90.0391 28.2107 89.5304 28 89 28H87M79 28H87M79 28V26M87 28V26" stroke="#8B7F6F" stroke-linecap="round" stroke-linejoin="round"/>
</svg>
