<svg width="23" height="23" viewBox="0 0 23 23" fill="none" xmlns="http://www.w3.org/2000/svg">
<path d="M20.125 9.34375C20.125 9.53437 20.0493 9.71719 19.9145 9.85198C19.7797 9.98677 19.5969 10.0625 19.4062 10.0625C19.2156 10.0625 19.0328 9.98677 18.898 9.85198C18.7632 9.71719 18.6875 9.53437 18.6875 9.34375V5.32953L12.7282 11.2898C12.5933 11.4246 12.4104 11.5004 12.2196 11.5004C12.0289 11.5004 11.846 11.4246 11.7111 11.2898C11.5763 11.1549 11.5005 10.972 11.5005 10.7812C11.5005 10.5905 11.5763 10.4076 11.7111 10.2727L17.6705 4.3125H13.6562C13.4656 4.3125 13.2828 4.23677 13.148 4.10198C13.0132 3.96719 12.9375 3.78437 12.9375 3.59375C12.9375 3.40313 13.0132 3.22031 13.148 3.08552C13.2828 2.95073 13.4656 2.875 13.6562 2.875H19.4062C19.5969 2.875 19.7797 2.95073 19.9145 3.08552C20.0493 3.22031 20.125 3.40313 20.125 3.59375V9.34375ZM16.5312 11.5C16.3406 11.5 16.1578 11.5757 16.023 11.7105C15.8882 11.8453 15.8125 12.0281 15.8125 12.2188V18.6875H4.3125V7.1875H10.7812C10.9719 7.1875 11.1547 7.11177 11.2895 6.97698C11.4243 6.84219 11.5 6.65937 11.5 6.46875C11.5 6.27813 11.4243 6.09531 11.2895 5.96052C11.1547 5.82573 10.9719 5.75 10.7812 5.75H4.3125C3.93125 5.75 3.56562 5.90145 3.29603 6.17103C3.02645 6.44062 2.875 6.80625 2.875 7.1875V18.6875C2.875 19.0687 3.02645 19.4344 3.29603 19.704C3.56562 19.9735 3.93125 20.125 4.3125 20.125H15.8125C16.1937 20.125 16.5594 19.9735 16.829 19.704C17.0985 19.4344 17.25 19.0687 17.25 18.6875V12.2188C17.25 12.0281 17.1743 11.8453 17.0395 11.7105C16.9047 11.5757 16.7219 11.5 16.5312 11.5Z" fill="#FF0000"/>
</svg>
