<svg width="50" height="26" viewBox="0 0 50 26" fill="none" xmlns="http://www.w3.org/2000/svg">
<path d="M5.66374 25.8235C5.64605 24.2963 4.42434 23.7195 4.42434 23.7195C4.42434 23.7195 9.19387 24.0711 9.3117 18.5506C9.3117 18.5506 9.79124 16.5707 20.545 17.3875C21.452 17.4568 23.6023 21.8515 23.7536 23.2675C23.9061 24.6848 24.0269 25.8235 24.0269 25.8235H32.304C32.2321 24.1156 30.7405 23.56 29.9029 22.9369C30.6131 17.5777 31.8003 12.4165 34.627 12.3025C36.8307 12.2144 38.7779 11.621 39.7293 11.0058C40.6813 10.3911 46.6769 10.2769 47.1918 9.76834C47.7143 9.26064 49.3254 7.79571 48.9997 7.176C48.6821 6.55238 45.7396 5.87584 45.7396 5.87584C45.7396 5.87584 45.3856 5.14217 45.1285 4.68679C44.8707 4.23681 42.0949 3.39009 42.0949 3.39009C42.0949 3.39009 41.5209 1.80834 41.0695 1.18577C40.6149 0.562606 39.1329 2.25771 39.1329 2.25771C39.1329 2.25771 33.9467 2.26402 32.2923 1.80834C30.0373 1.18577 29.4855 0.0269381 26.2954 0.00017727C23.8153 -0.0186155 23.4084 1.46285 21.1798 1.5499C18.9342 1.64251 14.7427 0.265831 8.90704 1.09256C3.0635 1.91959 0.802483 7.3991 0.355742 9.26515C-0.0966679 11.1259 1.64358 15.4917 1.84041 17.4045C2.03639 19.3117 0.417403 20.7474 0.0622079 21.7268C-0.286804 22.6991 0.946588 25.8234 0.946588 25.8234C0.946588 25.8234 5.66958 26.2207 5.66374 25.8235Z" fill="#8B7F6F"/>
</svg>
