<svg width="49" height="26" viewBox="0 0 49 26" fill="none" xmlns="http://www.w3.org/2000/svg">
<path d="M5.6588 25.8235C5.64112 24.2963 4.42047 23.7195 4.42047 23.7195C4.42047 23.7195 9.18585 24.0711 9.30357 18.5506C9.30357 18.5506 9.7827 16.5707 20.5271 17.3875C21.4333 17.4568 23.5817 21.8515 23.7329 23.2675C23.8853 24.6848 24.0059 25.8235 24.0059 25.8235H32.2758C32.2039 24.1156 30.7137 23.56 29.8768 22.9369C30.5864 17.5777 31.7725 12.4165 34.5968 12.3025C36.7986 12.2144 38.7441 11.621 39.6946 11.0058C40.6458 10.3911 46.6361 10.2769 47.1506 9.76834C47.6727 9.26064 49.2823 7.79571 48.957 7.176C48.6397 6.55238 45.6997 5.87584 45.6997 5.87584C45.6997 5.87584 45.346 5.14217 45.0891 4.68679C44.8315 4.23681 42.0582 3.39009 42.0582 3.39009C42.0582 3.39009 41.4847 1.80834 41.0337 1.18577C40.5794 0.562606 39.0988 2.25771 39.0988 2.25771C39.0988 2.25771 33.9171 2.26402 32.2642 1.80834C30.0111 1.18577 29.4598 0.0269381 26.2725 0.00017727C23.7945 -0.0186155 23.3879 1.46285 21.1613 1.5499C18.9177 1.64251 14.7298 0.265831 8.89926 1.09256C3.06083 1.91959 0.801783 7.3991 0.355431 9.26515C-0.0965836 11.1259 1.64215 15.4917 1.83881 17.4045C2.03461 19.3117 0.417038 20.7474 0.0621536 21.7268C-0.286553 22.6991 0.945762 25.8234 0.945762 25.8234C0.945762 25.8234 5.66463 26.2207 5.6588 25.8235Z" fill="url(#paint0_linear_14_88)"/>
<defs>
<linearGradient id="paint0_linear_14_88" x1="0" y1="26" x2="49" y2="4.83141e-07" gradientUnits="userSpaceOnUse">
<stop offset="0.245" stop-color="#970909"/>
<stop offset="1" stop-color="#FF0000"/>
</linearGradient>
</defs>
</svg>
