<svg width="16" height="16" viewBox="0 0 16 16" fill="none" xmlns="http://www.w3.org/2000/svg">
<g clip-path="url(#clip0_70_120)">
<path d="M4.158 12.025C4.22033 12.0458 4.27796 12.0786 4.32758 12.1217C4.3772 12.1648 4.41785 12.2172 4.4472 12.276C4.47655 12.3348 4.49402 12.3988 4.49862 12.4643C4.50322 12.5299 4.49485 12.5957 4.474 12.658L3.974 14.158C3.95517 14.2226 3.9235 14.2827 3.8809 14.3347C3.83829 14.3868 3.78563 14.4297 3.72605 14.4609C3.66648 14.4921 3.60122 14.511 3.53417 14.5164C3.46713 14.5218 3.39969 14.5136 3.33589 14.4923C3.27208 14.4711 3.21322 14.4371 3.16283 14.3926C3.11244 14.3481 3.07155 14.2938 3.04262 14.2331C3.01369 14.1724 2.99731 14.1064 2.99445 14.0392C2.99159 13.972 3.00232 13.905 3.026 13.842L3.526 12.342C3.56778 12.2162 3.65783 12.1121 3.77635 12.0526C3.89487 11.9932 4.03215 11.9832 4.158 12.025ZM7.158 12.025C7.22033 12.0458 7.27796 12.0786 7.32758 12.1217C7.3772 12.1648 7.41785 12.2172 7.4472 12.276C7.47655 12.3348 7.49402 12.3988 7.49862 12.4643C7.50322 12.5299 7.49485 12.5957 7.474 12.658L6.474 15.658C6.45517 15.7226 6.4235 15.7827 6.3809 15.8347C6.33829 15.8868 6.28563 15.9297 6.22605 15.9609C6.16648 15.9921 6.10122 16.011 6.03417 16.0164C5.96713 16.0218 5.89969 16.0136 5.83589 15.9923C5.77208 15.9711 5.71322 15.9371 5.66283 15.8926C5.61244 15.8481 5.57155 15.7938 5.54262 15.7331C5.51369 15.6724 5.49731 15.6064 5.49445 15.5392C5.49159 15.472 5.50232 15.405 5.526 15.342L6.526 12.342C6.56778 12.2162 6.65783 12.1121 6.77635 12.0526C6.89487 11.9932 7.03215 11.9832 7.158 12.025ZM10.158 12.025C10.2203 12.0458 10.278 12.0786 10.3276 12.1217C10.3772 12.1648 10.4179 12.2172 10.4472 12.276C10.4765 12.3348 10.494 12.3988 10.4986 12.4643C10.5032 12.5299 10.4949 12.5957 10.474 12.658L9.974 14.158C9.95517 14.2226 9.9235 14.2827 9.8809 14.3347C9.83829 14.3868 9.78563 14.4297 9.72605 14.4609C9.66648 14.4921 9.60122 14.511 9.53417 14.5164C9.46713 14.5218 9.39969 14.5136 9.33589 14.4923C9.27208 14.4711 9.21322 14.4371 9.16283 14.3926C9.11244 14.3481 9.07155 14.2938 9.04262 14.2331C9.01369 14.1724 8.99731 14.1064 8.99445 14.0392C8.99159 13.972 9.00232 13.905 9.026 13.842L9.526 12.342C9.56778 12.2162 9.65783 12.1121 9.77635 12.0526C9.89487 11.9932 10.0322 11.9832 10.158 12.025ZM13.158 12.025C13.2203 12.0458 13.278 12.0786 13.3276 12.1217C13.3772 12.1648 13.4179 12.2172 13.4472 12.276C13.4765 12.3348 13.494 12.3988 13.4986 12.4643C13.5032 12.5299 13.4949 12.5957 13.474 12.658L12.474 15.658C12.4552 15.7226 12.4235 15.7827 12.3809 15.8347C12.3383 15.8868 12.2856 15.9297 12.2261 15.9609C12.1665 15.9921 12.1012 16.011 12.0342 16.0164C11.9671 16.0218 11.8997 16.0136 11.8359 15.9923C11.7721 15.9711 11.7132 15.9371 11.6628 15.8926C11.6124 15.8481 11.5716 15.7938 11.5426 15.7331C11.5137 15.6724 11.4973 15.6064 11.4945 15.5392C11.4916 15.472 11.5023 15.405 11.526 15.342L12.526 12.342C12.5678 12.2162 12.6578 12.1121 12.7764 12.0526C12.8949 11.9932 13.0322 11.9832 13.158 12.025ZM13.405 5.027C13.1973 3.98016 12.6602 3.02721 11.8722 2.30748C11.0842 1.58775 10.0866 1.13898 9.02524 1.02681C7.96392 0.91463 6.89454 1.14492 5.97346 1.68401C5.05239 2.2231 4.32792 3.0427 3.906 4.023C3.43284 3.96849 2.95353 4.01113 2.49742 4.14831C2.04131 4.28548 1.61799 4.51431 1.2534 4.82078C0.888798 5.12724 0.590586 5.5049 0.37702 5.93063C0.163454 6.35635 0.0390277 6.82119 0.0113585 7.29668C-0.0163107 7.77217 0.0533598 8.2483 0.216104 8.69592C0.378849 9.14355 0.631243 9.55324 0.957834 9.89993C1.28442 10.2466 1.67834 10.523 2.11546 10.7122C2.55258 10.9013 3.02371 10.9993 3.5 11H13C13.7611 11.0009 14.4941 10.7124 15.0505 10.1931C15.6069 9.67373 15.9451 8.96232 15.9966 8.20295C16.048 7.44358 15.809 6.69303 15.3278 6.10334C14.8466 5.51364 14.1593 5.12888 13.405 5.027Z" fill="#699BF7"/>
</g>
<defs>
<clipPath id="clip0_70_120">
<rect width="16" height="16" fill="white"/>
</clipPath>
</defs>
</svg>
