<svg width="21" height="20" viewBox="0 0 21 20" fill="none" xmlns="http://www.w3.org/2000/svg">
<g clip-path="url(#clip0_15_30)">
<path fill-rule="evenodd" clip-rule="evenodd" d="M9.74017 1.66666C8.60968 1.66675 7.4956 1.93696 6.49088 2.45473C5.48617 2.97251 4.61995 3.72284 3.96449 4.64312C3.30904 5.5634 2.88336 6.62695 2.72297 7.74503C2.56258 8.86311 2.67213 10.0033 3.04247 11.0705C3.41282 12.1377 4.03323 13.1009 4.85193 13.8798C5.67064 14.6587 6.66391 15.2306 7.74886 15.548C8.83381 15.8653 9.979 15.9189 11.0889 15.7041C12.1987 15.4893 13.2411 15.0125 14.129 14.3133L17.175 17.3567C17.3323 17.5085 17.543 17.5925 17.7617 17.5906C17.9804 17.5887 18.1896 17.501 18.3442 17.3465C18.4988 17.192 18.5866 16.983 18.5885 16.7645C18.5904 16.546 18.5063 16.3355 18.3544 16.1783L15.3084 13.135C16.1324 12.0905 16.6455 10.8353 16.7889 9.51309C16.9323 8.19087 16.7002 6.85501 16.1193 5.6584C15.5383 4.4618 14.6318 3.45279 13.5037 2.74685C12.3756 2.04091 11.0713 1.66657 9.74017 1.66666ZM4.31877 8.74999C4.31877 7.3134 4.88995 5.93565 5.90666 4.91983C6.92337 3.90401 8.30233 3.33332 9.74017 3.33332C11.178 3.33332 12.557 3.90401 13.5737 4.91983C14.5904 5.93565 15.1616 7.3134 15.1616 8.74999C15.1616 10.1866 14.5904 11.5643 13.5737 12.5802C12.557 13.596 11.178 14.1667 9.74017 14.1667C8.30233 14.1667 6.92337 13.596 5.90666 12.5802C4.88995 11.5643 4.31877 10.1866 4.31877 8.74999Z" fill="#8B7F6F"/>
</g>
<defs>
<clipPath id="clip0_15_30">
<rect width="20.0175" height="20" fill="white" transform="translate(0.982529)"/>
</clipPath>
</defs>
</svg>
